<svg xmlns="http://www.w3.org/2000/svg" width="57" height="56" viewBox="0 0 57 56" fill="none">
    <g clip-path="url(#clip0_73_234)">
        <mask id="mask0_73_234" style="mask-type:luminance" maskUnits="userSpaceOnUse" x="0" y="0" width="57"
              height="56">
            <path d="M56.5 0H0.5V56H56.5V0Z" fill="white"/>
        </mask>
        <g mask="url(#mask0_73_234)">
            <path d="M28.3746 5.29443C28.3746 -9.83511 37.8285 11.6115 34.0536 18.1624C37.8352 11.6115 61.1391 9.076 48.034 16.6424C61.1391 9.076 47.2925 28.0006 39.7292 28.0006C47.2925 28.0006 61.1391 46.9148 48.034 39.3585C61.1391 46.9249 37.8352 44.3895 34.0536 37.8386C37.8352 44.3895 28.3746 65.8361 28.3746 50.7066C28.3746 65.8361 18.9174 44.3895 22.6956 37.8386C18.914 44.3895 -4.38996 46.9249 8.71519 39.3585C-4.38996 46.9249 9.45679 28.0006 17.0232 28.0006C9.45679 28.0006 -4.38996 9.08603 8.71519 16.6424C-4.38996 9.076 18.914 11.6115 22.6956 18.1624C18.9174 11.6048 28.3746 -9.83511 28.3746 5.29443Z"
                  fill="url(#paint0_radial_73_234)"/>
        </g>
    </g>
    <defs>
        <radialGradient id="paint0_radial_73_234" cx="0" cy="0" r="1" gradientUnits="userSpaceOnUse"
                        gradientTransform="translate(36.4396 33.7734) rotate(104.361) scale(25.6138 14.8733)">
            <stop offset="0.275" stop-color="#386569"/>
            <stop offset="1" stop-color="#386569" stop-opacity="0.8"/>
        </radialGradient>
        <clipPath id="clip0_73_234">
            <rect width="56" height="56" fill="white" transform="translate(0.5)"/>
        </clipPath>
    </defs>
</svg>