<svg xmlns="http://www.w3.org/2000/svg" width="63" height="62" viewBox="0 0 63 62" fill="none">
    <g clip-path="url(#clip0_81_78)">
        <path d="M31.5 0C14.3773 0 0.5 13.8773 0.5 31C0.5 48.1227 14.3773 62 31.5 62C48.6227 62 62.5 48.1227 62.5 31C62.5 13.8773 48.6227 0 31.5 0ZM50.8508 50.3387C48.332 52.8574 45.4137 54.8312 42.1562 56.1996C38.7898 57.6285 35.2055 58.343 31.5 58.343C27.8066 58.343 24.2223 57.6164 20.8438 56.1996C17.5863 54.8191 14.6559 52.8453 12.1492 50.3387C9.63047 47.8199 7.65664 44.9016 6.28828 41.6441C4.85938 38.2777 4.13281 34.6934 4.13281 31C4.13281 27.3066 4.85937 23.7223 6.27617 20.3438C7.65664 17.0863 9.63047 14.1559 12.1371 11.6492C14.668 9.13047 17.5863 7.15664 20.8438 5.77617C24.2223 4.35937 27.8066 3.63281 31.5 3.63281C35.1934 3.63281 38.7777 4.35937 42.1562 5.77617C45.4137 7.15664 48.3441 9.13047 50.8508 11.6371C53.3695 14.1559 55.3434 17.0742 56.7117 20.3316C58.1406 23.698 58.8551 27.2824 58.8551 30.9879C58.8551 34.6812 58.1285 38.2656 56.7117 41.6441C55.3313 44.9016 53.3574 47.832 50.8508 50.3387Z"
              fill="#0D243A"/>
        <path d="M22.8297 24.6304H16.7871V43.969H22.8297V24.6304Z" fill="#0D243A"/>
        <path d="M19.6812 15.5C17.453 15.5 15.9878 16.941 15.9878 18.8543C15.9878 20.7313 17.4046 22.2086 19.5964 22.2086H19.6448C21.9214 22.2086 23.3382 20.7191 23.3261 18.8543C23.2776 16.941 21.9093 15.5 19.6812 15.5Z"
              fill="#0D243A"/>
        <path d="M39.3348 24.4487C35.8715 24.4487 33.704 26.3378 33.3043 27.6698V24.6304H26.511C26.5958 26.2409 26.511 43.969 26.511 43.969H33.3043V33.5187C33.3043 32.9253 33.2801 32.344 33.4497 31.9323C33.9098 30.7698 34.9149 29.5589 36.7192 29.5589C39.0805 29.5589 40.1461 31.3511 40.1461 33.9667V43.969H47V33.2159C47 27.2339 43.6336 24.4487 39.3348 24.4487Z"
              fill="#0D243A"/>
    </g>
    <defs>
        <clipPath id="clip0_81_78">
            <rect width="62" height="62" fill="white" transform="translate(0.5)"/>
        </clipPath>
    </defs>
</svg>