<svg xmlns="http://www.w3.org/2000/svg" width="63" height="62" viewBox="0 0 63 62" fill="none">
    <g clip-path="url(#clip0_81_39)">
        <path d="M55.7257 30.1963C55.7257 35.1334 55.7257 38.463 55.6109 40.3C55.3813 44.7778 54.1183 48.2223 51.5924 50.6334C49.0664 53.0445 45.7368 54.4223 41.259 54.6519C39.422 54.7667 35.9776 54.7667 31.1553 54.7667C26.2183 54.7667 22.8887 54.7667 21.0516 54.6519C16.5738 54.4223 13.1294 53.1593 10.7183 50.6334C8.30718 48.2223 6.92941 44.7778 6.69978 40.3C6.58496 38.463 6.58496 35.0186 6.58496 30.1963C6.58496 25.3741 6.58496 21.9297 6.69978 20.0926C6.92941 15.6149 8.19237 12.1704 10.7183 9.75931C13.1294 7.3482 16.5738 5.97042 21.0516 5.74079C22.8887 5.62598 26.3331 5.62598 31.1553 5.62598C36.0924 5.62598 39.422 5.62598 41.259 5.74079C45.7368 5.97042 49.1813 7.23338 51.5924 9.75931C54.0035 12.2852 55.3813 15.6149 55.6109 20.0926C55.6109 21.9297 55.7257 25.2593 55.7257 30.1963ZM33.5664 9.98894C32.0739 9.98894 31.2701 9.98894 31.1553 9.98894C31.0405 9.98894 30.2368 9.98894 28.7442 9.98894C27.2516 9.98894 26.1035 9.98894 25.4146 9.98894C24.6109 9.98894 23.5776 9.98894 22.3146 10.1038C21.0516 10.1038 19.9035 10.2186 18.985 10.4482C18.0664 10.563 17.2627 10.7926 16.6887 11.0223C15.6553 11.4815 14.7368 12.0556 13.8183 12.8593C13.0146 13.663 12.4405 14.5815 11.9813 15.7297C11.7516 16.3038 11.522 17.1075 11.4072 18.026C11.2924 18.9445 11.1776 19.9778 11.0627 21.3556C11.0627 22.6186 10.9479 23.6519 10.9479 24.4556C10.9479 25.2593 10.9479 26.4075 10.9479 27.7852C10.9479 29.2778 10.9479 30.0815 10.9479 30.1963C10.9479 30.3112 10.9479 31.1149 10.9479 32.6075C10.9479 34.1001 10.9479 35.2482 10.9479 35.9371C10.9479 36.7408 10.9479 37.7741 11.0627 39.0371C11.0627 40.3001 11.1776 41.4482 11.4072 42.3667C11.6368 43.2852 11.7516 44.0889 11.9813 44.663C12.4405 45.6963 13.0146 46.6149 13.8183 47.5334C14.622 48.3371 15.5405 48.9112 16.6887 49.3704C17.2627 49.6001 18.0664 49.8297 18.985 49.9445C19.9035 50.0593 20.9368 50.1741 22.3146 50.2889C23.6924 50.4038 24.6109 50.4038 25.4146 50.4038C26.2183 50.4038 27.3664 50.4038 28.7442 50.4038C30.2368 50.4038 31.0405 50.4038 31.1553 50.4038C31.2701 50.4038 32.0739 50.4038 33.5664 50.4038C35.059 50.4038 36.2072 50.4038 36.8961 50.4038C37.6998 50.4038 38.7331 50.4038 39.9961 50.2889C41.259 50.2889 42.4072 50.1741 43.3257 49.9445C44.2442 49.8297 45.0479 49.6001 45.622 49.3704C46.6553 48.9112 47.5739 48.3371 48.4924 47.5334C49.2961 46.7297 49.8702 45.8112 50.3294 44.663C50.559 44.0889 50.7887 43.2852 50.9035 42.3667C51.0183 41.4482 51.1331 40.4149 51.2479 39.0371C51.2479 37.7741 51.3627 36.7408 51.3627 35.9371C51.3627 35.1334 51.3627 33.9852 51.3627 32.6075C51.3627 31.1149 51.3627 30.3112 51.3627 30.1963C51.3627 30.0815 51.3627 29.2778 51.3627 27.7852C51.3627 26.2926 51.3627 25.1445 51.3627 24.4556C51.3627 23.6519 51.3627 22.6186 51.2479 21.3556C51.2479 20.0926 51.1331 18.9445 50.9035 18.026C50.7887 17.1075 50.559 16.3038 50.3294 15.7297C49.8702 14.6963 49.2961 13.7778 48.4924 12.8593C47.6887 12.0556 46.7701 11.4815 45.622 11.0223C45.0479 10.7926 44.2442 10.563 43.3257 10.4482C42.4072 10.3334 41.3739 10.2186 39.9961 10.1038C38.7331 10.1038 37.6998 9.98894 36.8961 9.98894C36.2072 9.98894 35.059 9.98894 33.5664 9.98894ZM39.9961 21.2408C42.4072 23.6519 43.6701 26.6371 43.6701 30.1963C43.6701 33.7556 42.4072 36.626 39.9961 39.1519C37.585 41.563 34.5998 42.826 31.0405 42.826C27.4813 42.826 24.6109 41.563 22.085 39.1519C19.6738 36.7408 18.4109 33.7556 18.4109 30.1963C18.4109 26.6371 19.6738 23.7667 22.085 21.2408C24.4961 18.8297 27.4813 17.5667 31.0405 17.5667C34.5998 17.5667 37.585 18.7149 39.9961 21.2408ZM36.8961 35.9371C38.5035 34.3297 39.3072 32.3778 39.3072 30.1963C39.3072 28.0149 38.5035 25.9482 36.8961 24.3408C35.2887 22.7334 33.3368 21.9297 31.0405 21.9297C28.7442 21.9297 26.7924 22.7334 25.185 24.3408C23.5776 25.9482 22.7738 27.9001 22.7738 30.1963C22.7738 32.4926 23.5776 34.4445 25.185 35.9371C26.7924 37.5445 28.7442 38.3482 31.0405 38.3482C33.3368 38.3482 35.2887 37.5445 36.8961 35.9371ZM46.3109 14.926C46.885 15.5001 47.2294 16.1889 47.2294 16.9926C47.2294 17.7963 46.885 18.4852 46.3109 19.0593C45.7368 19.6334 45.0479 19.9778 44.2442 19.9778C43.4405 19.9778 42.7516 19.6334 42.1776 19.0593C41.6035 18.4852 41.259 17.7963 41.259 16.9926C41.259 16.1889 41.6035 15.5001 42.1776 14.926C42.7516 14.3519 43.4405 14.0075 44.2442 14.0075C45.0479 14.0075 45.7368 14.3519 46.3109 14.926Z"
              fill="#441534"/>
    </g>
    <defs>
        <clipPath id="clip0_81_39">
            <rect width="62" height="62" fill="white" transform="translate(0.5)"/>
        </clipPath>
    </defs>
</svg>