<svg width="320" height="320" viewBox="0 0 320 320" fill="none" xmlns="http://www.w3.org/2000/svg">
<mask id="mask0_97_353" style="mask-type:luminance" maskUnits="userSpaceOnUse" x="0" y="0" width="320" height="320">
<path d="M319.373 0H0V319.373H319.373V0Z" fill="white"/>
</mask>
<g mask="url(#mask0_97_353)">
<path d="M149.594 8.23133C155.469 3.43949 163.904 3.43949 169.779 8.23133L182.446 18.5634C186.434 21.8143 191.742 22.9461 196.706 21.604L212.445 17.3501C219.754 15.3746 227.444 18.8029 230.862 25.5589L238.298 40.2654C240.614 44.842 244.984 48.0284 250.05 48.8308L266.224 51.3933C273.677 52.574 279.287 58.8107 279.673 66.3468L280.524 82.9384C280.786 88.0397 283.474 92.7081 287.753 95.4975L301.592 104.518C307.893 108.626 310.473 116.576 307.784 123.603L301.831 139.161C300.009 143.92 300.57 149.264 303.337 153.542L312.375 167.509C316.458 173.822 315.587 182.127 310.28 187.454L298.575 199.205C294.976 202.819 293.318 207.934 294.117 212.972L296.721 229.418C297.898 236.858 293.716 244.109 286.686 246.817L271.341 252.726C266.564 254.565 262.959 258.582 261.644 263.529L257.395 279.526C255.455 286.833 248.657 291.777 241.109 291.373L224.806 290.501C219.676 290.227 214.727 292.437 211.508 296.44L201.227 309.228C196.478 315.134 188.232 316.889 181.488 313.427L166.979 305.978C162.401 303.629 156.972 303.629 152.394 305.978L137.884 313.427C131.141 316.889 122.895 315.134 118.146 309.228L107.865 296.44C104.646 292.437 99.697 290.227 94.5667 290.501L78.264 291.373C70.7155 291.777 63.9178 286.833 61.9773 279.526L57.7277 263.529C56.4138 258.582 52.8086 254.565 48.0324 252.726L32.6864 246.817C25.6562 244.109 21.4742 236.858 22.6523 229.418L25.2563 212.972C26.054 207.934 24.3971 202.819 20.7976 199.205L9.09203 187.454C3.78638 182.127 2.91443 173.822 6.99824 167.509L16.0349 153.542C18.8034 149.264 19.3631 143.92 17.5417 139.161L11.5878 123.603C8.89895 116.576 11.4792 108.626 17.7817 104.518L31.6201 95.4975C35.8994 92.7081 38.586 88.0397 38.8477 82.9384L39.6992 66.3468C40.0859 58.8107 45.6951 52.574 53.1481 51.3933L69.3227 48.8308C74.388 48.0284 78.7595 44.842 81.074 40.2654L88.5114 25.5589C91.9281 18.8029 99.6194 15.3746 106.928 17.3501L122.666 21.604C127.632 22.9461 132.94 21.8143 136.925 18.5634L149.594 8.23133Z" fill="white"/>
</g>
</svg>
